<svg xmlns="http://www.w3.org/2000/svg" viewBox="0 0 32 32" width="32" height="32">
  <!-- Board frame (amber-800) -->
  <rect width="32" height="32" fill="#92400e"/>
  <!-- All squares default to Normal (amber-50) -->
  <rect x="1" y="1" width="30" height="30" fill="#fffbeb"/>

  <!-- Triple Word (red-500 #ef4444) -->
  <!-- (0,0) --> <rect x="1"  y="1"  width="2" height="2" fill="#ef4444"/>
  <!-- (0,7) --> <rect x="15" y="1"  width="2" height="2" fill="#ef4444"/>
  <!-- (0,14)--> <rect x="29" y="1"  width="2" height="2" fill="#ef4444"/>
  <!-- (7,0) --> <rect x="1"  y="15" width="2" height="2" fill="#ef4444"/>
  <!-- (7,14)--> <rect x="29" y="15" width="2" height="2" fill="#ef4444"/>
  <!-- (14,0)--> <rect x="1"  y="29" width="2" height="2" fill="#ef4444"/>
  <!-- (14,7)--> <rect x="15" y="29" width="2" height="2" fill="#ef4444"/>
  <!-- (14,14)--><rect x="29" y="29" width="2" height="2" fill="#ef4444"/>

  <!-- Double Word (pink-300 #f9a8d4) -->
  <!-- (1,1)  --> <rect x="3"  y="3"  width="2" height="2" fill="#f9a8d4"/>
  <!-- (1,13) --> <rect x="27" y="3"  width="2" height="2" fill="#f9a8d4"/>
  <!-- (2,2)  --> <rect x="5"  y="5"  width="2" height="2" fill="#f9a8d4"/>
  <!-- (2,12) --> <rect x="25" y="5"  width="2" height="2" fill="#f9a8d4"/>
  <!-- (3,3)  --> <rect x="7"  y="7"  width="2" height="2" fill="#f9a8d4"/>
  <!-- (3,11) --> <rect x="23" y="7"  width="2" height="2" fill="#f9a8d4"/>
  <!-- (4,4)  --> <rect x="9"  y="9"  width="2" height="2" fill="#f9a8d4"/>
  <!-- (4,10) --> <rect x="21" y="9"  width="2" height="2" fill="#f9a8d4"/>
  <!-- (7,7) center --> <rect x="15" y="15" width="2" height="2" fill="#f9a8d4"/>
  <!-- (10,4) --> <rect x="9"  y="21" width="2" height="2" fill="#f9a8d4"/>
  <!-- (10,10)--> <rect x="21" y="21" width="2" height="2" fill="#f9a8d4"/>
  <!-- (11,3) --> <rect x="7"  y="23" width="2" height="2" fill="#f9a8d4"/>
  <!-- (11,11)--> <rect x="23" y="23" width="2" height="2" fill="#f9a8d4"/>
  <!-- (12,2) --> <rect x="5"  y="25" width="2" height="2" fill="#f9a8d4"/>
  <!-- (12,12)--> <rect x="25" y="25" width="2" height="2" fill="#f9a8d4"/>
  <!-- (13,1) --> <rect x="3"  y="27" width="2" height="2" fill="#f9a8d4"/>
  <!-- (13,13)--> <rect x="27" y="27" width="2" height="2" fill="#f9a8d4"/>

  <!-- Triple Letter (blue-500 #3b82f6) -->
  <!-- (1,5)  --> <rect x="11" y="3"  width="2" height="2" fill="#3b82f6"/>
  <!-- (1,9)  --> <rect x="19" y="3"  width="2" height="2" fill="#3b82f6"/>
  <!-- (5,1)  --> <rect x="3"  y="11" width="2" height="2" fill="#3b82f6"/>
  <!-- (5,5)  --> <rect x="11" y="11" width="2" height="2" fill="#3b82f6"/>
  <!-- (5,9)  --> <rect x="19" y="11" width="2" height="2" fill="#3b82f6"/>
  <!-- (5,13) --> <rect x="27" y="11" width="2" height="2" fill="#3b82f6"/>
  <!-- (9,1)  --> <rect x="3"  y="19" width="2" height="2" fill="#3b82f6"/>
  <!-- (9,5)  --> <rect x="11" y="19" width="2" height="2" fill="#3b82f6"/>
  <!-- (9,9)  --> <rect x="19" y="19" width="2" height="2" fill="#3b82f6"/>
  <!-- (9,13) --> <rect x="27" y="19" width="2" height="2" fill="#3b82f6"/>
  <!-- (13,5) --> <rect x="11" y="27" width="2" height="2" fill="#3b82f6"/>
  <!-- (13,9) --> <rect x="19" y="27" width="2" height="2" fill="#3b82f6"/>

  <!-- Double Letter (sky-200 #bae6fd) -->
  <!-- (0,3)  --> <rect x="7"  y="1"  width="2" height="2" fill="#bae6fd"/>
  <!-- (0,11) --> <rect x="23" y="1"  width="2" height="2" fill="#bae6fd"/>
  <!-- (2,6)  --> <rect x="13" y="5"  width="2" height="2" fill="#bae6fd"/>
  <!-- (2,8)  --> <rect x="17" y="5"  width="2" height="2" fill="#bae6fd"/>
  <!-- (3,0)  --> <rect x="1"  y="7"  width="2" height="2" fill="#bae6fd"/>
  <!-- (3,7)  --> <rect x="15" y="7"  width="2" height="2" fill="#bae6fd"/>
  <!-- (3,14) --> <rect x="29" y="7"  width="2" height="2" fill="#bae6fd"/>
  <!-- (6,2)  --> <rect x="5"  y="13" width="2" height="2" fill="#bae6fd"/>
  <!-- (6,6)  --> <rect x="13" y="13" width="2" height="2" fill="#bae6fd"/>
  <!-- (6,8)  --> <rect x="17" y="13" width="2" height="2" fill="#bae6fd"/>
  <!-- (6,12) --> <rect x="25" y="13" width="2" height="2" fill="#bae6fd"/>
  <!-- (7,3)  --> <rect x="7"  y="15" width="2" height="2" fill="#bae6fd"/>
  <!-- (7,11) --> <rect x="23" y="15" width="2" height="2" fill="#bae6fd"/>
  <!-- (8,2)  --> <rect x="5"  y="17" width="2" height="2" fill="#bae6fd"/>
  <!-- (8,6)  --> <rect x="13" y="17" width="2" height="2" fill="#bae6fd"/>
  <!-- (8,8)  --> <rect x="17" y="17" width="2" height="2" fill="#bae6fd"/>
  <!-- (8,12) --> <rect x="25" y="17" width="2" height="2" fill="#bae6fd"/>
  <!-- (11,0) --> <rect x="1"  y="23" width="2" height="2" fill="#bae6fd"/>
  <!-- (11,7) --> <rect x="15" y="23" width="2" height="2" fill="#bae6fd"/>
  <!-- (11,14)--> <rect x="29" y="23" width="2" height="2" fill="#bae6fd"/>
  <!-- (12,6) --> <rect x="13" y="25" width="2" height="2" fill="#bae6fd"/>
  <!-- (12,8) --> <rect x="17" y="25" width="2" height="2" fill="#bae6fd"/>
  <!-- (14,3) --> <rect x="7"  y="29" width="2" height="2" fill="#bae6fd"/>
  <!-- (14,11)--> <rect x="23" y="29" width="2" height="2" fill="#bae6fd"/>
</svg>
